<?xml version="1.0" encoding="UTF-8" standalone="no"?>
<!DOCTYPE svg PUBLIC "-//W3C//DTD SVG 1.1//EN"
 "http://www.w3.org/Graphics/SVG/1.1/DTD/svg11.dtd">
<!-- Generated by graphviz version 14.1.1 (20251213.1925)
 -->
<!-- Title: TestGame Pages: 1 -->
<svg width="820pt" height="408pt"
 viewBox="0.00 0.00 820.00 408.00" xmlns="http://www.w3.org/2000/svg" xmlns:xlink="http://www.w3.org/1999/xlink">
<g id="graph0" class="graph" transform="scale(1 1) rotate(0) translate(4 404)">
<title>TestGame</title>
<polygon fill="white" stroke="none" points="-4,4 -4,-404 815.75,-404 815.75,4 -4,4"/>
<g id="clust1" class="cluster">
<title>clusterLegend</title>
<polygon fill="none" stroke="black" points="8,-138 8,-392 544,-392 544,-138 8,-138"/>
<text xml:space="preserve" text-anchor="middle" x="276" y="-374.7" font-family="Times New Roman,serif" font-size="14.00">Legend</text>
</g>
<!-- legendNode0 -->
<g id="node1" class="node">
<title>legendNode0</title>
<polygon fill="none" stroke="black" points="288.29,-323.55 291.14,-323.65 293.95,-323.8 296.72,-323.99 299.44,-324.24 302.1,-324.53 304.68,-324.86 307.18,-325.25 309.59,-325.68 311.89,-326.15 314.09,-326.66 316.17,-327.21 318.12,-327.81 319.94,-328.44 321.62,-329.11 323.17,-329.81 324.57,-330.54 325.82,-331.3 326.92,-332.09 327.87,-332.91 328.66,-333.75 329.31,-334.61 329.8,-335.49 330.15,-336.39 330.34,-337.3 330.4,-338.22 330.31,-339.15 330.08,-340.09 329.73,-341.03 329.24,-341.97 328.64,-342.91 327.92,-343.85 327.08,-344.78 326.14,-345.7 325.11,-346.61 323.98,-347.51 322.77,-348.39 321.48,-349.25 320.11,-350.09 318.68,-350.91 317.18,-351.7 315.63,-352.46 314.03,-353.19 312.39,-353.89 310.7,-354.56 308.98,-355.19 307.23,-355.79 305.46,-356.34 303.65,-356.85 301.83,-357.32 300,-357.75 298.14,-358.14 296.28,-358.47 294.4,-358.76 292.52,-359.01 290.63,-359.2 288.74,-359.35 286.85,-359.45 284.95,-359.5 283.05,-359.5 281.15,-359.45 279.26,-359.35 277.37,-359.2 275.48,-359.01 273.6,-358.76 271.72,-358.47 269.86,-358.14 268,-357.75 266.17,-357.32 264.35,-356.85 262.54,-356.34 260.77,-355.79 259.02,-355.19 257.3,-354.56 255.61,-353.89 253.97,-353.19 252.37,-352.46 250.82,-351.7 249.32,-350.91 247.89,-350.09 246.52,-349.25 245.23,-348.39 244.02,-347.51 242.89,-346.61 241.86,-345.7 240.92,-344.78 240.08,-343.85 239.36,-342.91 238.76,-341.97 238.27,-341.03 237.92,-340.09 237.69,-339.15 237.6,-338.22 237.66,-337.3 237.85,-336.39 238.2,-335.49 238.69,-334.61 239.34,-333.75 240.13,-332.91 241.08,-332.09 242.18,-331.3 243.43,-330.54 244.83,-329.81 246.38,-329.11 248.06,-328.44 249.88,-327.81 251.83,-327.21 253.91,-326.66 256.11,-326.15 258.41,-325.68 260.82,-325.25 263.32,-324.86 265.9,-324.53 268.56,-324.24 271.28,-323.99 274.05,-323.8 276.86,-323.65 279.71,-323.55 282.57,-323.5 285.43,-323.5 288.29,-323.55"/>
<text xml:space="preserve" text-anchor="middle" x="284" y="-337.23" font-family="Times New Roman,serif" font-size="12.00">Executable</text>
</g>
<!-- legendNode1 -->
<g id="node2" class="node">
<title>legendNode1</title>
<polygon fill="none" stroke="black" points="126.42,-253.04 126.42,-267.96 93.96,-278.5 48.04,-278.5 15.58,-267.96 15.58,-253.04 48.04,-242.5 93.96,-242.5 126.42,-253.04"/>
<text xml:space="preserve" text-anchor="middle" x="71" y="-256.23" font-family="Times New Roman,serif" font-size="12.00">Static Library</text>
</g>
<!-- legendNode0&#45;&gt;legendNode1 -->
<g id="edge1" class="edge">
<title>legendNode0&#45;&gt;legendNode1</title>
<path fill="none" stroke="black" d="M248.38,-327.87C218.14,-317.08 173.63,-301.04 135,-286.5 128.85,-284.18 122.38,-281.71 116.02,-279.25"/>
<polygon fill="black" stroke="black" points="117.48,-276.06 106.89,-275.7 114.95,-282.58 117.48,-276.06"/>
</g>
<!-- legendNode2 -->
<g id="node3" class="node">
<title>legendNode2</title>
<polygon fill="none" stroke="black" points="268.07,-253.04 268.07,-267.96 232.88,-278.5 183.12,-278.5 147.93,-267.96 147.93,-253.04 183.12,-242.5 232.88,-242.5 268.07,-253.04"/>
<polygon fill="none" stroke="black" points="272.07,-250.07 272.07,-270.93 233.47,-282.5 182.53,-282.5 143.93,-270.93 143.93,-250.07 182.53,-238.5 233.47,-238.5 272.07,-250.07"/>
<text xml:space="preserve" text-anchor="middle" x="208" y="-256.23" font-family="Times New Roman,serif" font-size="12.00">Shared Library</text>
</g>
<!-- legendNode0&#45;&gt;legendNode2 -->
<g id="edge2" class="edge">
<title>legendNode0&#45;&gt;legendNode2</title>
<path fill="none" stroke="black" d="M268.25,-324.13C259.11,-314.62 247.3,-302.35 236.57,-291.2"/>
<polygon fill="black" stroke="black" points="239.14,-288.82 229.68,-284.04 234.1,-293.67 239.14,-288.82"/>
</g>
<!-- legendNode3 -->
<g id="node4" class="node">
<title>legendNode3</title>
<polygon fill="none" stroke="black" points="423.65,-253.04 423.65,-267.96 386.95,-278.5 335.05,-278.5 298.35,-267.96 298.35,-253.04 335.05,-242.5 386.95,-242.5 423.65,-253.04"/>
<polygon fill="none" stroke="black" points="427.65,-250.03 427.65,-270.97 387.51,-282.5 334.49,-282.5 294.35,-270.97 294.35,-250.03 334.49,-238.5 387.51,-238.5 427.65,-250.03"/>
<polygon fill="none" stroke="black" points="431.65,-247.02 431.65,-273.98 388.08,-286.5 333.92,-286.5 290.35,-273.98 290.35,-247.02 333.92,-234.5 388.08,-234.5 431.65,-247.02"/>
<text xml:space="preserve" text-anchor="middle" x="361" y="-256.23" font-family="Times New Roman,serif" font-size="12.00">Module Library</text>
</g>
<!-- legendNode0&#45;&gt;legendNode3 -->
<!-- legendNode7 -->
<g id="node8" class="node">
<title>legendNode7</title>
<polygon fill="none" stroke="black" points="535.88,-278.5 450.12,-278.5 450.12,-242.5 535.88,-242.5 535.88,-278.5"/>
<text xml:space="preserve" text-anchor="middle" x="493" y="-256.23" font-family="Times New Roman,serif" font-size="12.00">Custom Target</text>
</g>
<!-- legendNode0&#45;&gt;legendNode7 -->
<!-- legendNode4 -->
<g id="node5" class="node">
<title>legendNode4</title>
<polygon fill="none" stroke="black" points="166.08,-169.56 91,-182 15.92,-169.56 44.6,-149.44 137.4,-149.44 166.08,-169.56"/>
<text xml:space="preserve" text-anchor="middle" x="91" y="-159.72" font-family="Times New Roman,serif" font-size="12.00">Interface Library</text>
</g>
<!-- legendNode1&#45;&gt;legendNode4 -->
<g id="edge4" class="edge">
<title>legendNode1&#45;&gt;legendNode4</title>
<path fill="none" stroke="black" stroke-dasharray="5,2" d="M74.67,-242.17C77.59,-228.36 81.74,-208.77 85.12,-192.78"/>
<polygon fill="black" stroke="black" points="88.46,-193.89 87.11,-183.39 81.61,-192.44 88.46,-193.89"/>
<text xml:space="preserve" text-anchor="middle" x="107.38" y="-203.2" font-family="Times New Roman,serif" font-size="14.00">Interface</text>
</g>
<!-- legendNode5 -->
<g id="node6" class="node">
<title>legendNode5</title>
<polygon fill="none" stroke="black" points="309.98,-164 278.49,-182 215.51,-182 184.02,-164 215.51,-146 278.49,-146 309.98,-164"/>
<text xml:space="preserve" text-anchor="middle" x="247" y="-159.72" font-family="Times New Roman,serif" font-size="12.00">Object Library</text>
</g>
<!-- legendNode2&#45;&gt;legendNode5 -->
<g id="edge5" class="edge">
<title>legendNode2&#45;&gt;legendNode5</title>
<path fill="none" stroke="black" stroke-dasharray="1,5" d="M216.85,-238.06C222.4,-224.6 229.61,-207.13 235.59,-192.64"/>
<polygon fill="black" stroke="black" points="238.72,-194.24 239.3,-183.66 232.25,-191.57 238.72,-194.24"/>
<text xml:space="preserve" text-anchor="middle" x="251.27" y="-203.2" font-family="Times New Roman,serif" font-size="14.00">Private</text>
</g>
<!-- legendNode6 -->
<g id="node7" class="node">
<title>legendNode6</title>
<polygon fill="none" stroke="black" points="472.18,-159.99 457.89,-175.22 400,-182 342.11,-175.22 327.82,-159.99 367.88,-147.78 432.12,-147.78 472.18,-159.99"/>
<text xml:space="preserve" text-anchor="middle" x="400" y="-159.72" font-family="Times New Roman,serif" font-size="12.00">Unknown Library</text>
</g>
<!-- legendNode3&#45;&gt;legendNode6 -->
<g id="edge6" class="edge">
<title>legendNode3&#45;&gt;legendNode6</title>
<path fill="none" stroke="black" d="M371.45,-234.18C376.85,-221.11 383.43,-205.16 388.91,-191.87"/>
<polygon fill="black" stroke="black" points="392.05,-193.44 392.63,-182.86 385.58,-190.77 392.05,-193.44"/>
</g>
<!-- node0 -->
<g id="node9" class="node">
<title>node0</title>
<polygon fill="none" stroke="black" points="748.41,-91 690.2,-109 573.8,-109 515.59,-91 573.8,-73 690.2,-73 748.41,-91"/>
<text xml:space="preserve" text-anchor="middle" x="632" y="-86.72" font-family="Times New Roman,serif" font-size="12.00">GameEngineCommonInternal</text>
</g>
<!-- node1 -->
<g id="node10" class="node">
<title>node1</title>
<polygon fill="none" stroke="black" points="674.53,-13.99 666.11,-29.22 632,-36 597.89,-29.22 589.47,-13.99 613.07,-1.78 650.93,-1.78 674.53,-13.99"/>
<text xml:space="preserve" text-anchor="middle" x="632" y="-13.72" font-family="Times New Roman,serif" font-size="12.00">opengl32</text>
</g>
<!-- node0&#45;&gt;node1 -->
<g id="edge8" class="edge">
<title>node0&#45;&gt;node1</title>
<path fill="none" stroke="black" stroke-dasharray="1,5" d="M632,-72.81C632,-65.23 632,-56.1 632,-47.54"/>
<polygon fill="black" stroke="black" points="635.5,-47.54 632,-37.54 628.5,-47.54 635.5,-47.54"/>
</g>
<!-- node2 -->
<g id="node11" class="node">
<title>node2</title>
<polygon fill="none" stroke="black" points="702.01,-253.04 702.01,-267.96 658.65,-278.5 597.35,-278.5 553.99,-267.96 553.99,-253.04 597.35,-242.5 658.65,-242.5 702.01,-253.04"/>
<text xml:space="preserve" text-anchor="middle" x="628" y="-256.23" font-family="Times New Roman,serif" font-size="12.00">GameEngineEditor</text>
</g>
<!-- node2&#45;&gt;node0 -->
<g id="edge9" class="edge">
<title>node2&#45;&gt;node0</title>
<path fill="none" stroke="black" stroke-dasharray="1,5" d="M628.41,-242.21C629.1,-213.49 630.48,-155.7 631.31,-120.77"/>
<polygon fill="black" stroke="black" points="634.81,-121.05 631.55,-110.96 627.81,-120.88 634.81,-121.05"/>
</g>
<!-- node3 -->
<g id="node12" class="node">
<title>node3</title>
<polygon fill="none" stroke="black" points="811.75,-156.54 811.75,-171.46 763.86,-182 696.14,-182 648.25,-171.46 648.25,-156.54 696.14,-146 763.86,-146 811.75,-156.54"/>
<text xml:space="preserve" text-anchor="middle" x="730" y="-159.72" font-family="Times New Roman,serif" font-size="12.00">GameEngineRuntime</text>
</g>
<!-- node2&#45;&gt;node3 -->
<g id="edge11" class="edge">
<title>node2&#45;&gt;node3</title>
<path fill="none" stroke="black" stroke-dasharray="1,5" d="M646.71,-242.17C662.52,-227.51 685.38,-206.34 703.15,-189.88"/>
<polygon fill="black" stroke="black" points="705.34,-192.62 710.3,-183.25 700.59,-187.48 705.34,-192.62"/>
</g>
<!-- node3&#45;&gt;node0 -->
<g id="edge10" class="edge">
<title>node3&#45;&gt;node0</title>
<path fill="none" stroke="black" d="M706.03,-145.63C693.69,-136.69 678.45,-125.66 665.02,-115.92"/>
<polygon fill="black" stroke="black" points="667.44,-113.36 657.29,-110.32 663.34,-119.02 667.44,-113.36"/>
</g>
<!-- node4 -->
<g id="node13" class="node">
<title>node4</title>
<polygon fill="none" stroke="black" points="704.83,-323.55 709.36,-323.65 713.83,-323.8 718.24,-323.99 722.57,-324.24 726.8,-324.53 730.91,-324.86 734.89,-325.25 738.72,-325.68 742.39,-326.15 745.88,-326.66 749.18,-327.21 752.29,-327.81 755.19,-328.44 757.87,-329.11 760.32,-329.81 762.55,-330.54 764.54,-331.3 766.29,-332.09 767.8,-332.91 769.07,-333.75 770.1,-334.61 770.88,-335.49 771.43,-336.39 771.74,-337.3 771.83,-338.22 771.69,-339.15 771.33,-340.09 770.76,-341.03 769.99,-341.97 769.03,-342.91 767.88,-343.85 766.55,-344.78 765.06,-345.7 763.41,-346.61 761.62,-347.51 759.69,-348.39 757.63,-349.25 755.46,-350.09 753.18,-350.91 750.8,-351.7 748.33,-352.46 745.79,-353.19 743.17,-353.89 740.49,-354.56 737.75,-355.19 734.97,-355.79 732.14,-356.34 729.27,-356.85 726.38,-357.32 723.45,-357.75 720.5,-358.14 717.54,-358.47 714.56,-358.76 711.56,-359.01 708.56,-359.2 705.55,-359.35 702.53,-359.45 699.51,-359.5 696.49,-359.5 693.47,-359.45 690.45,-359.35 687.44,-359.2 684.44,-359.01 681.44,-358.76 678.46,-358.47 675.5,-358.14 672.55,-357.75 669.62,-357.32 666.73,-356.85 663.86,-356.34 661.03,-355.79 658.25,-355.19 655.51,-354.56 652.83,-353.89 650.21,-353.19 647.67,-352.46 645.2,-351.7 642.82,-350.91 640.54,-350.09 638.37,-349.25 636.31,-348.39 634.38,-347.51 632.59,-346.61 630.94,-345.7 629.45,-344.78 628.12,-343.85 626.97,-342.91 626.01,-341.97 625.24,-341.03 624.67,-340.09 624.31,-339.15 624.17,-338.22 624.26,-337.3 624.57,-336.39 625.12,-335.49 625.9,-334.61 626.93,-333.75 628.2,-332.91 629.71,-332.09 631.46,-331.3 633.45,-330.54 635.68,-329.81 638.13,-329.11 640.81,-328.44 643.71,-327.81 646.82,-327.21 650.12,-326.66 653.61,-326.15 657.28,-325.68 661.11,-325.25 665.09,-324.86 669.2,-324.53 673.43,-324.24 677.76,-323.99 682.17,-323.8 686.64,-323.65 691.17,-323.55 695.72,-323.5 700.28,-323.5 704.83,-323.55"/>
<text xml:space="preserve" text-anchor="middle" x="698" y="-337.23" font-family="Times New Roman,serif" font-size="12.00">TestGameWindows</text>
</g>
<!-- node4&#45;&gt;node2 -->
<g id="edge12" class="edge">
<title>node4&#45;&gt;node2</title>
<path fill="none" stroke="black" stroke-dasharray="1,5" d="M682.81,-323.36C673.52,-312.87 661.45,-299.25 651,-287.46"/>
<polygon fill="black" stroke="black" points="653.66,-285.18 644.4,-280.01 648.42,-289.82 653.66,-285.18"/>
</g>
<!-- node4&#45;&gt;node3 -->
<g id="edge13" class="edge">
<title>node4&#45;&gt;node3</title>
<path fill="none" stroke="black" stroke-dasharray="1,5" d="M702.58,-323.07C705.25,-312.53 708.56,-298.8 711,-286.5 717.28,-254.82 722.77,-218.17 726.21,-193.47"/>
<polygon fill="black" stroke="black" points="729.64,-194.26 727.53,-183.88 722.7,-193.31 729.64,-194.26"/>
</g>
</g>
</svg>
